<svg width="31" height="31" viewBox="0 0 31 31" fill="none" xmlns="http://www.w3.org/2000/svg">
<path d="M29.1681 27.4003L2.65162 0.88386C2.1637 0.395937 1.37175 0.396011 0.883901 0.883861C0.396051 1.37171 0.396051 2.16373 0.883901 2.65158L27.4004 29.1681C27.8883 29.656 28.6802 29.6559 29.1681 29.1681C29.6559 28.6802 29.656 27.8883 29.1681 27.4003Z" fill="white"/>
<path d="M2.65161 29.168L29.1681 2.65156C29.656 2.16364 29.6559 1.37169 29.1681 0.88384C28.6802 0.39599 27.8882 0.39599 27.4004 0.88384L0.883885 27.4003C0.395961 27.8882 0.396035 28.6802 0.883885 29.168C1.37173 29.6559 2.16368 29.656 2.65161 29.168Z" fill="white"/>
</svg>
