<svg width="36" height="36" viewBox="0 0 36 36" fill="none" xmlns="http://www.w3.org/2000/svg">
<path d="M1.12497 11.25H34.8749C35.496 11.25 35.9999 10.7459 35.9999 10.125C35.9999 9.50398 35.4959 9.00003 34.8749 9.00003H1.12497C0.503946 9.00003 0 9.50407 0 10.125C0 10.7459 0.504039 11.25 1.12497 11.25Z" fill="white"/>
<path d="M34.8749 16.875H1.12497C0.503946 16.875 0 17.379 0 18C0 18.6209 0.504039 19.1249 1.12497 19.1249H34.8749C35.496 19.1249 35.9999 18.6209 35.9999 18C35.9999 17.379 35.496 16.875 34.8749 16.875Z" fill="white"/>
<path d="M34.8749 24.75H12.375C11.7539 24.75 11.25 25.254 11.25 25.875C11.25 26.496 11.754 26.9999 12.375 26.9999H34.8749C35.496 26.9999 35.9999 26.4959 35.9999 25.875C36 25.2539 35.496 24.75 34.8749 24.75Z" fill="white"/>
</svg>
